# xmcd
#
# Track frame offsets:
#	150
#	8041
#	22501
#	41309
#	60371
#	77286
#	92728
#	112313
#	117338
#	136730
#	154842
#	169594
#	190347
#	209821
#
# Disc length: 3025 seconds
#
# Revision: 1
# Processed by: cddbd v1.5.1PL0 Copyright (c) Steve Scherf et al.
# Submitted via: EasyCDDAExtractor 8.0.2.1
#
DISCID=a70bcf0e
DTITLE=Allure
DYEAR=1997
DGENRE=R&B
TTITLE0=Introduction
TTITLE1=Anything You Want
TTITLE2=You're Gonna Love Me
TTITLE3=Head Over Heals
TTITLE4=No Question
TTITLE5=All Cried Out
TTITLE6=The Story
TTITLE7=Come Into My House
TTITLE8=When You Need Someone
TTITLE9=Give You All I Got
TTITLE10=I'll Give You Anything
TTITLE11=Wanna Get With You
TTITLE12=Last Chance
TTITLE13=Mama Said
EXTD=
EXTT0=
EXTT1=
EXTT2=
EXTT3=
EXTT4=
EXTT5=
EXTT6=
EXTT7=
EXTT8=
EXTT9=
EXTT10=
EXTT11=
EXTT12=
EXTT13=
PLAYORDER=
